# AST/ASF file generated using VICON BodyLanguage
# -----------------------------------------------
:version 1.10
:name VICON
:units
  mass 1.0
  length 0.45
  angle deg
:documentation
   .ast/.asf automatically generated from VICON data using
   VICON BodyBuilder and BodyLanguage model FoxedUp or BRILLIANT.MOD
:root
   order TX TY TZ RX RY RZ
   axis XYZ
   position 0 0 0  
   orientation 0 0 0 
:bonedata
  begin
     id 1 
     name lhipjoint
     direction 0.690799 -0.707083 0.151096 
     length 2.54797 
     axis 0 0 0  XYZ
  end
  begin
     id 2 
     name lfemur
     direction 0.34202 -0.939693 0  
     length 7.21646  
     axis 0 0 20  XYZ
    dof rx ry rz
    limits (-160.0 20.0)
           (-70.0 70.0)
           (-60.0 70.0)
  end
  begin
     id 3 
     name ltibia
     direction 0.34202 -0.939693 0   
     length 8.16759   
     axis 0 0 20   XYZ
    dof rx
    limits (-10.0 170.0)
  end
  begin
     id 4 
     name lfoot
     direction 0.0487203 -0.133858 0.989802   
     length 1.93375   
     axis -90 7.62852e-016 20   XYZ
    dof rx rz
    limits (-45.0 90.0)
           (-70.0 20.0)
  end
  begin
     id 5 
     name ltoes
     direction 1.53453e-011 -4.21783e-011 1   
     length 0.979747   
     axis -90 7.62852e-016 20   XYZ
    dof rx
    limits (-90.0 20.0)
  end
  begin
     id 6 
     name rhipjoint
     direction -0.694693 -0.703425 0.150315   
     length 2.56122  
     axis 0 0 0  XYZ 
  end
  begin
     id 7 
     name rfemur
     direction -0.34202 -0.939693 0   
     length 7.36786   
     axis 0 0 -20   XYZ
    dof rx ry rz
    limits (-160.0 20.0)
           (-70.0 70.0)
           (-70.0 60.0)
  end
  begin
     id 8 
     name rtibia
     direction -0.34202 -0.939693 0   
     length 8.07288   
     axis 0 0 -20   XYZ
    dof rx
    limits (-10.0 170.0)
 end
 begin
     id 9 
     name rfoot
     direction -0.0428397 -0.117701 0.992125   
     length 1.88295  
     axis -90 -7.62852e-016 -20   XYZ
    dof rx rz
    limits (-45.0 90.0)
           (-20.0 70.0)
  end
  begin
     id 10 
     name rtoes
     direction -1.53456e-011 -4.2187e-011 1   
     length 0.955578   
     axis -90 -7.62852e-016 -20   XYZ
    dof rx
    limits (-90.0 20.0)
  end
  begin
     id 11 
     name lowerback
     direction 0.0288145 0.999398 -0.0193241   
     length 1.92149   
     axis 0 0 0   XYZ
    dof rx ry rz
    limits (-20.0 45.0)
           (-30.0 30.0)
           (-30.0 30.0)
  end
  begin
     id 12 
     name upperback
     direction 0.0233784 0.998099 0.0570278   
     length 1.90435   
     axis 0 0 0   XYZ
    dof rx ry rz
    limits (-20.0 45.0)
           (-30.0 30.0)
           (-30.0 30.0)
  end
  begin
     id 13 
     name thorax
     direction 0.0096694 0.997833 0.0650817   
     length 1.9111   
     axis 0 0 0   XYZ
    dof rx ry rz
    limits (-20.0 45.0)
           (-30.0 30.0)
           (-30.0 30.0)
  end
  begin
     id 14 
     name lowerneck
     direction 0.00516803 0.999916 0.0118722   
     length 1.74664   
     axis 0 0 0   XYZ
    dof rx ry rz
    limits (-20.0 45.0)
           (-30.0 30.0)
           (-30.0 30.0)
  end
  begin
     id 15 
     name upperneck
     direction -0.0510851 0.996117 -0.071696   
     length 1.68498   
     axis 0 0 0   XYZ
    dof rx ry rz
    limits (-20.0 45.0)
           (-30.0 30.0)
           (-30.0 30.0)
  end
  begin
     id 16
     name head
     direction -0.019188 0.999436 -0.0275702  
     length 1.83483  
     axis 0 0 0   XYZ
    dof rx ry rz
    limits (-20.0 45.0)
           (-30.0 30.0)
           (-30.0 30.0)
  end
  begin
     id 17 
     name lclavicle
     direction 0.967006 0.248456 -0.0562957  
     length 3.39395  
     axis 0 0 0   XYZ
    dof ry rz
    limits (-20.0 10.0)
           (0.0 20.0)
  end
  begin
     id 18 
     name lhumerus
     direction 1 -4.48962e-011 -5.62711e-019   
     length 5.24318   
     axis 180 -30 -90   XYZ
    dof rx ry rz
    limits (-60.0 90.0)
           (-90.0 90.0)
           (-90.0 90.0)
  end
  begin
     id 19
     name lradius
     direction 1 -4.48966e-011 7.90625e-027   
     length 2.98999   
     axis 180 -30 -90   XYZ
    dof rx
    limits (-10.0 170.0)
  end
  begin
     id 20
     name lwrist
     direction 1 -4.48959e-011 1.61068e-026   
     length 1.49499   
     axis -9.31229e-015 90 90   XYZ
    dof ry
    limits (-180.0 0.0)
 end
  begin
     id 21 
     name lhand
     direction 1 -4.49017e-011 3.22136e-026   
     length 0.726745   
     axis -2.0555e-014 90 90   XYZ
    dof rx rz
    limits (-90.0 90.0)
           (-45.0 45.0)
  end
  begin
     id 22 
     name lfingers
     direction 1 -4.4898e-011 6.44272e-026   
     length 0.58592   
     axis -4.11101e-014 90 90   XYZ
    dof rx
    limits (0.0 90.0)
  end
  begin
     id 23
     name lthumb
     direction 0.707107 -6.34922e-011 0.707107   
     length 0.841268   
     axis -90 45 2.85299e-015   XYZ
    dof rx rz
    limits (-45.0 45.0)
           (-45.0 45.0)
  end
  begin
     id 24 
     name rclavicle
     direction -0.972232 0.230238 0.0419005   
     length 3.40416  
     axis 0 0 0   XYZ 
    dof ry rz
    limits (-10.0 20.0)
           (-20.0 0.0)
  end
  begin
     id 25 
     name rhumerus
     direction -1 -4.48976e-011 2.48487e-027  
     length 5.37045   
     axis 180 30 90   XYZ
    dof rx ry rz
    limits (-90.0 60.0)
           (-90.0 90.0)
           (-90.0 90.0)
  end
  begin
     id 26 
     name rradius
     direction -1 -4.48942e-011 7.87951e-027   
     length 2.92792   
     axis 180 30 90   XYZ
    dof rx
    limits (-10.0 170.0)
  end
  begin
     id 27 
     name rwrist
     direction -1 -4.48969e-011 1.61068e-026   
     length 1.46396   
     axis -9.31229e-015 -90 -90   XYZ
    dof ry
    limits (-180.0 0.0)
  end
  begin
     id 28
     name rhand
     direction -1 -4.49043e-011 3.22136e-026   
     length 0.784497   
     axis -2.0555e-014 -90 -90   XYZ
    dof rx rz
    limits (-90.0 90.0)
           (-45.0 45.0)
  end
  begin
     id 29
     name rfingers
     direction -1 -4.48823e-011 6.44272e-026   
     length 0.632482   
     axis -4.11101e-014 -90 -90   XYZ
    dof rx
    limits (0.0 90.0)
  end
  begin
     id 30
     name rthumb
     direction -0.707107 -6.34923e-011 0.707107   
     length 0.908121   
     axis -90 -45 -2.85299e-015   XYZ
    dof rx rz
    limits (-45.0 45.0)
           (-45.0 45.0)
  end
:hierarchy
  begin
    root lhipjoint rhipjoint lowerback
    lhipjoint lfemur
    lfemur ltibia
    ltibia lfoot
    lfoot ltoes
    rhipjoint rfemur
    rfemur rtibia
    rtibia rfoot
    rfoot rtoes
    lowerback upperback
    upperback thorax
    thorax lowerneck lclavicle rclavicle
    lowerneck upperneck
    upperneck head
    lclavicle lhumerus
    lhumerus lradius
    lradius lwrist
    lwrist lhand lthumb
    lhand lfingers
    rclavicle rhumerus
    rhumerus rradius
    rradius rwrist
    rwrist rhand rthumb
    rhand rfingers
  end

#!OML:ASF E:\Style6\Style6.ASF
:FULLY-SPECIFIED
:DEGREES
495
root 0.227344 18.2324 0.743254 11.647 -2.11583 -3.23597
lowerback -4.88981 -0.159013 1.91261
upperback -4.47443 -0.247314 2.59951
thorax -1.86004 -0.135155 1.59302
lowerneck -7.35932 -1.99408 2.17655
upperneck 9.52101 -2.19958 -7.0774
head 3.93805 -1.38753 -2.6413
rclavicle -1.21662e-014 0
rhumerus -37.3259 -5.76839 -79.3552
rradius 25.7474
rwrist 21.3435
rhand -8.21047 11.2106
rfingers 7.12502
rthumb 17.7063 -18.0032
lclavicle -1.21662e-014 0
lhumerus -42.3838 17.4424 76.003
lradius 15.0109
lwrist -23.977
lhand -8.04821 17.6413
lfingers 7.12502
lthumb 17.8624 46.841
rfemur -11.0789 13.2136 20.9264
rtibia 9.57658
rfoot -4.08797 -17.0879
rtoes -18.2408
lfemur -15.8157 -17.3336 -13.3666
ltibia 20.4849
lfoot -8.59044 21.2083
ltoes -13.0325
496
root 0.228345 18.2309 0.741072 11.6462 -2.05443 -3.30966
lowerback -4.90245 -0.136526 2.00401
upperback -4.4329 -0.221833 2.60863
thorax -1.81087 -0.124313 1.55169
lowerneck -7.42728 -2.02387 2.18014
upperneck 9.49031 -2.24668 -7.03091
head 3.93835 -1.4088 -2.63059
rclavicle 6.87981e-015 -2.62396e-014
rhumerus -37.5778 -6.42711 -78.6511
rradius 25.3646
rwrist 21.8206
rhand -7.95525 10.8722
rfingers 7.12502
rthumb 17.9519 -18.3192
lclavicle 6.87981e-015 -2.62396e-014
lhumerus -42.4531 16.8734 76.2308
lradius 15.1907
lwrist -23.2389
lhand -8.03769 17.8157
lfingers 7.12502
lthumb 17.8726 47.0144
rfemur -11.0599 13.1719 21.0195
rtibia 9.55635
rfoot -4.1513 -17.0777
rtoes -17.9459
lfemur -15.8574 -17.3611 -13.257
ltibia 20.5048
lfoot -8.75317 21.1559
ltoes -12.4296
497
root 0.230166 18.2301 0.737407 11.6467 -2.05328 -3.26688
lowerback -4.90366 -0.102571 1.96028
upperback -4.40314 -0.17621 2.59718
thorax -1.77976 -0.100324 1.56566
lowerneck -7.45466 -2.04603 2.17033
upperneck 9.44562 -2.28066 -7.00182
head 3.92824 -1.42412 -2.62154
rclavicle -2.96935e-015 9.93923e-015
rhumerus -37.8436 -6.91894 -78.0181
rradius 25.0379
rwrist 22.1466
rhand -7.87665 10.6717
rfingers 7.12502
rthumb 18.0275 -18.5128
lclavicle -2.96935e-015 9.93923e-015
lhumerus -42.5744 16.4903 76.362
lradius 15.3666
lwrist -22.6459
lhand -8.04808 17.9707
lfingers 7.12502
lthumb 17.8626 47.1704
rfemur -11.0562 13.1612 20.9633
rtibia 9.51547
rfoot -4.0872 -17.0738
rtoes -18.2753
lfemur -15.8974 -17.3775 -13.2957
ltibia 20.5215
lfoot -8.77754 21.1448
ltoes -12.2431
498
root 0.231316 18.2287 0.734244 11.6639 -2.05068 -3.25643
lowerback -4.89768 -0.0727042 1.93259
upperback -4.40555 -0.135163 2.59291
thorax -1.78601 -0.0791104 1.57814
lowerneck -7.44367 -2.04488 2.18499
upperneck 9.42965 -2.2845 -6.97216
head 3.92154 -1.42347 -2.6146
rclavicle -9.59757e-015 1.35174e-014
rhumerus -38.1721 -7.13526 -77.5398
rradius 24.8462
rwrist 22.2255
rhand -7.72389 10.4111
rfingers 7.12502
rthumb 18.1745 -18.7599
lclavicle -9.59757e-015 1.35174e-014
lhumerus -42.7384 16.2583 76.3431
lradius 15.4983
lwrist -22.2947
lhand -8.13282 18.0171
lfingers 7.12502
lthumb 17.781 47.2242
rfemur -11.0639 13.1577 20.9441
rtibia 9.47357
rfoot -4.12791 -17.0577
rtoes -17.7892
lfemur -15.9367 -17.4031 -13.2949
ltibia 20.5331
lfoot -8.67734 21.1612
ltoes -12.6472
499
root 0.231906 18.2292 0.731992 11.6686 -2.00122 -3.33652
lowerback -4.90149 -0.0553624 2.01528
upperback -4.3925 -0.115007 2.60912
thorax -1.77099 -0.0707389 1.54909
lowerneck -7.39671 -2.03986 2.16705
upperneck 9.35063 -2.28695 -6.89599
head 3.89084 -1.41934 -2.58647
rclavicle -3.8763e-015 3.49861e-014
rhumerus -38.5123 -7.33965 -77.0691
rradius 24.7108
rwrist 22.4714
rhand -7.52445 10.2522
rfingers 7.12502
rthumb 18.3664 -18.9008
lclavicle -3.8763e-015 3.49861e-014
lhumerus -42.8077 16.0828 76.2829
lradius 15.5274
lwrist -22.0752
lhand -8.14122 17.9328
lfingers 7.12502
lthumb 17.773 47.1406
rfemur -11.0754 13.129 21.0393
rtibia 9.4938
rfoot -4.23735 -17.0274
rtoes -17.3433
lfemur -15.9618 -17.4239 -13.1933
ltibia 20.5424
lfoot -8.70018 21.153
ltoes -12.6515
500
root 0.232264 18.229 0.727988 11.6491 -1.96694 -3.36662
lowerback -4.85435 -0.032865 2.04644
upperback -4.37732 -0.0845152 2.61633
thorax -1.78205 -0.0561103 1.54005
lowerneck -7.38722 -2.0493 2.09387
upperneck 9.30182 -2.30172 -6.81391
head 3.87584 -1.424 -2.54918
rclavicle 1.13866e-014 7.95139e-015
rhumerus -38.829 -7.47289 -76.6413
rradius 24.5674
rwrist 22.6107
rhand -7.36553 10.1878
rfingers 7.12502
rthumb 18.5192 -18.9506
lclavicle 1.13866e-014 7.95139e-015
lhumerus -42.8569 16.1216 76.101
lradius 15.5175
lwrist -22.1505
lhand -8.00083 17.8058
lfingers 7.12502
lthumb 17.908 47.0013
rfemur -11.0644 13.1046 21.0879
rtibia 9.50769
rfoot -4.27739 -17.0435
rtoes -17.4855
lfemur -15.9735 -17.4533 -13.1524
ltibia 20.5832
lfoot -8.86517 21.137
ltoes -12.2133
501
root 0.232184 18.228 0.723448 11.6097 -1.94652 -3.3493
lowerback -4.76585 -0.0164183 1.99834
upperback -4.37463 -0.0576386 2.62063
thorax -1.8288 -0.0415004 1.57238
lowerneck -7.35166 -2.05608 2.03447
upperneck 9.24849 -2.31406 -6.73726
head 3.85499 -1.42679 -2.51524
rclavicle 9.84605e-016 -2.94201e-014
rhumerus -39.1327 -7.46038 -76.322
rradius 24.4312
rwrist 22.5085
rhand -7.2238 10.3372
rfingers 7.12502
rthumb 18.6556 -18.7883
lclavicle 9.84605e-016 -2.94201e-014
lhumerus -42.9142 15.7761 76.232
lradius 15.7245
lwrist -21.8831
lhand -7.82403 17.9525
lfingers 7.12502
lthumb 18.0781 47.1324
rfemur -11.0243 13.0827 21.0857
rtibia 9.49171
rfoot -4.09598 -17.1031
rtoes -18.1434
lfemur -15.9717 -17.4877 -13.1734
ltibia 20.6336
lfoot -8.86259 21.1655
ltoes -12.3238
502
root 0.23231 18.2268 0.718969 11.596 -1.91131 -3.32725
lowerback -4.72092 -0.0110866 1.96072
upperback -4.36595 -0.0479654 2.61358
thorax -1.84488 -0.0358194 1.5865
lowerneck -7.29389 -2.04429 2.11421
upperneck 9.14419 -2.30667 -6.7911
head 3.81232 -1.42077 -2.54197
rclavicle -8.00108e-015 2.14687e-014
rhumerus -39.4485 -7.29263 -76.1552
rradius 24.4256
rwrist 22.252
rhand -7.11339 10.406
rfingers 7.12502
rthumb 18.7618 -18.7092
lclavicle -8.00108e-015 2.14687e-014
lhumerus -42.9138 15.3335 76.4371
lradius 15.9635
lwrist -21.4921
lhand -7.84584 18.0127
lfingers 7.12502
lthumb 18.0572 47.1944
rfemur -11.0048 13.0456 21.0748
rtibia 9.47218
rfoot -4.07682 -17.1326
rtoes -18.1032
lfemur -15.9919 -17.5224 -13.1915
ltibia 20.6574
lfoot -8.64923 21.1894
ltoes -12.8279
503
root 0.233816 18.2288 0.714636 11.6148 -1.87777 -3.30049
lowerback -4.7127 0.00399311 1.9469
upperback -4.35842 -0.027467 2.59701
thorax -1.84187 -0.0253891 1.57775
lowerneck -7.2116 -2.01494 2.29505
upperneck 8.99946 -2.27801 -6.95529
head 3.7516 -1.4055 -2.61704
rclavicle 8.71857e-015 -2.46493e-014
rhumerus -39.7541 -7.02665 -76.0672
rradius 24.5463
rwrist 21.9461
rhand -6.99269 10.317
rfingers 7.12502
rthumb 18.8778 -18.7869
lclavicle 8.71857e-015 -2.46493e-014
lhumerus -42.8655 15.0623 76.5326
lradius 16.0966
lwrist -21.29
lhand -7.96977 17.8379
lfingers 7.12502
lthumb 17.9379 47.0306
rfemur -11.0115 13.0082 21.0431
rtibia 9.43631
rfoot -4.09583 -17.1117
rtoes -17.8733
lfemur -16.0289 -17.6011 -13.205
ltibia 20.6446
lfoot -8.46676 21.2164
ltoes -13.0876
504
root 0.2332 18.231 0.708508 11.5836 -1.82119 -3.31214
lowerback -4.63924 0.014549 1.94115
upperback -4.33874 -0.0109337 2.60279
thorax -1.86271 -0.0168743 1.58737
lowerneck -7.12353 -1.99086 2.3644
upperneck 8.85993 -2.25374 -7.01542
head 3.69425 -1.39078 -2.64222
rclavicle -3.0998e-015 -5.1684e-015
rhumerus -40.0002 -6.94771 -75.8979
rradius 24.5281
rwrist 21.8829
rhand -6.97937 10.3941
rfingers 7.12502
rthumb 18.8907 -18.7086
lclavicle -3.0998e-015 -5.1684e-015
lhumerus -42.781 14.7215 76.7141
lradius 16.2705
lwrist -20.9853
lhand -8.00518 17.8206
lfingers 7.12502
lthumb 17.9039 47.0165
rfemur -10.9355 12.9575 21.0776
rtibia 9.33565
rfoot -4.1331 -17.1147
rtoes -17.4946
lfemur -16.0139 -17.7482 -13.1613
ltibia 20.6008
lfoot -8.55814 21.2486
ltoes -12.4364
505
root 0.231426 18.2312 0.702199 11.5349 -1.78166 -3.33091
lowerback -4.54886 0.0219908 1.93882
upperback -4.31833 0.00197102 2.61263
thorax -1.89221 -0.0102452 1.59914
lowerneck -7.13901 -1.96588 2.36656
upperneck 8.5334 -2.2579 -6.77296
head 3.99863 -1.35823 -2.85105
rclavicle 5.23673e-015 -4.65156e-014
rhumerus -40.2155 -6.85698 -75.7548
rradius 24.4443
rwrist 21.7631
rhand -7.17809 10.6236
rfingers 7.12502
rthumb 18.6995 -18.4976
lclavicle 5.23673e-015 -4.65156e-014
lhumerus -42.6658 14.2081 77.0277
lradius 16.5313
lwrist -20.5442
lhand -7.83991 18.1199
lfingers 7.12502
lthumb 18.0629 47.3012
rfemur -10.8007 12.9268 21.1314
rtibia 9.15305
rfoot -4.05131 -17.1536
rtoes -17.3812
lfemur -15.9648 -17.8744 -13.1153
ltibia 20.5251
lfoot -8.67022 21.337
ltoes -12.078
506
root 0.230126 18.2327 0.694612 11.543 -1.72492 -3.32376
lowerback -4.51335 0.0247187 1.92756
upperback -4.31299 0.00708979 2.60544
thorax -1.90653 -0.00750659 1.59817
lowerneck -7.11435 -1.94462 2.35789
upperneck 8.49516 -2.23268 -6.74258
head 3.98162 -1.34384 -2.83567
rclavicle -3.85145e-016 6.36111e-015
rhumerus -40.4471 -6.61796 -75.7528
rradius 24.489
rwrist 21.4
rhand -7.32578 10.6715
rfingers 7.12502
rthumb 18.5575 -18.4634
lclavicle -3.85145e-016 6.36111e-015
lhumerus -42.5037 13.473 77.4904
lradius 16.8451
lwrist -19.8384
lhand -7.80252 18.4727
lfingers 7.12502
lthumb 18.0988 47.6506
rfemur -10.7194 12.8727 21.1375
rtibia 8.94458
rfoot -4.05205 -17.1465
rtoes -16.5542
lfemur -15.9757 -17.9708 -13.0812
ltibia 20.4382
lfoot -8.62091 21.4019
ltoes -12.1906
